<svg width="19" height="18" viewBox="0 0 19 18" fill="none" xmlns="http://www.w3.org/2000/svg">
<path d="M9.24453 17.1494C13.8966 17.1494 17.6677 13.4942 17.6677 8.98535C17.6677 4.47646 13.8965 0.821289 9.2445 0.821289C5.47288 0.821289 2.3158 3.22388 1.24246 6.53613H3.34827" stroke="#FAFAFA" stroke-width="1.64254" stroke-linecap="round" stroke-linejoin="round"/>
<path d="M9.24493 5.71973V8.98535L10.9296 10.6182" stroke="#FAFAFA" stroke-width="1.64254" stroke-linecap="round" stroke-linejoin="round"/>
<path d="M0.821259 8.98535C0.821259 9.26072 0.834066 9.53305 0.859109 9.80176M6.71752 17.1494C6.42979 17.0576 6.14871 16.9506 5.8752 16.8292M1.83996 13.0674C1.67752 12.764 1.53262 12.4496 1.40665 12.1254M3.20606 14.9504C3.46354 15.2193 3.73827 15.471 4.02844 15.7037" stroke="#FAFAFA" stroke-width="1.64254" stroke-linecap="round" stroke-linejoin="round"/>
</svg>
