<svg width="24" height="24" viewBox="0 0 24 24" fill="none" xmlns="http://www.w3.org/2000/svg">
<path d="M12.1735 19.7212C16.8255 19.7212 20.5967 16.066 20.5967 11.5571C20.5967 7.04824 16.8254 3.39307 12.1734 3.39307C8.4018 3.39307 5.24473 5.79566 4.17139 9.10791H6.27719" stroke="#FAFAFA" stroke-width="1.64254" stroke-linecap="round" stroke-linejoin="round"/>
<path d="M12.174 8.2915V11.5571L13.8586 13.1899" stroke="#FAFAFA" stroke-width="1.64254" stroke-linecap="round" stroke-linejoin="round"/>
<path d="M3.75024 11.5571C3.75024 11.8325 3.76305 12.1048 3.78809 12.3735M9.64651 19.7212C9.35877 19.6294 9.07769 19.5223 8.80418 19.401M4.76895 15.6392C4.60651 15.3358 4.46161 15.0213 4.33564 14.6972M6.13505 17.5222C6.39253 17.7911 6.66726 18.0428 6.95743 18.2755" stroke="#FAFAFA" stroke-width="1.64254" stroke-linecap="round" stroke-linejoin="round"/>
</svg>
