<svg width="12" height="12" viewBox="0 0 12 12" fill="none" xmlns="http://www.w3.org/2000/svg">
<path d="M6.00083 10.6155C8.54983 10.6155 10.6162 8.54916 10.6162 6.00015C10.6162 3.45114 8.54981 1.38477 6.00081 1.38477C3.9342 1.38477 2.20433 2.74302 1.61621 4.61554H2.77006" stroke="white" stroke-width="1.03753" stroke-linecap="round" stroke-linejoin="round"/>
<path d="M6.00049 4.1543V6.00045L6.92357 6.92353" stroke="white" stroke-width="1.03753" stroke-linecap="round" stroke-linejoin="round"/>
<path d="M1.38477 6C1.38477 6.15567 1.39178 6.30963 1.40551 6.46154M4.61554 10.6154C4.45788 10.5635 4.30386 10.503 4.154 10.4343M1.94295 8.30769C1.85394 8.1362 1.77455 7.95843 1.70552 7.77518M2.69148 9.37223C2.83256 9.52422 2.9831 9.66653 3.1421 9.79811" stroke="white" stroke-width="1.03753" stroke-linecap="round" stroke-linejoin="round"/>
</svg>
